<svg version="1.1" viewBox="0.0 0.0 2000.0 2000.0" fill="none" stroke="none" stroke-linecap="square" stroke-miterlimit="10" xmlns:xlink="http://www.w3.org/1999/xlink" xmlns="http://www.w3.org/2000/svg"><clipPath id="p.0"><path d="m0 0l2000.0 0l0 2000.0l-2000.0 0l0 -2000.0z" clip-rule="nonzero"/></clipPath><g clip-path="url(#p.0)"><path fill="#000000" fill-opacity="0.0" d="m0 0l2000.0 0l0 2000.0l-2000.0 0z" fill-rule="evenodd"/><path fill="#000000" fill-opacity="0.0" d="m0.007835958 117.484886l2000.0 0l0 1765.0394l-2000.0 0z" fill-rule="evenodd"/><path fill="#11a7f2" d="m203.78659 1065.7076l112.25 -7.03125q3.640625 27.34375 14.84375 41.65625q18.21875 23.1875 52.078125 23.1875q25.265625 0 38.9375 -11.84375q13.671875 -11.859375 13.671875 -27.484375q0 -14.84375 -13.03125 -26.5625q-13.015625 -11.71875 -60.40625 -22.140625q-77.609375 -17.4375 -110.6875 -46.34375q-33.328125 -28.90625 -33.328125 -73.703125q0 -29.421875 17.046875 -55.59375q17.0625 -26.171875 51.3125 -41.140625q34.25 -14.984375 93.875 -14.984375q73.171875 0 111.578125 27.21875q38.421844 27.21875 45.71872 86.59375l-111.203094 6.5q-4.421875 -25.78125 -18.625 -37.5q-14.1875 -11.71875 -39.1875 -11.71875q-20.5625 0 -30.984375 8.734375q-10.421875 8.71875 -10.421875 21.21875q0 9.109375 8.59375 16.40625q8.34375 7.546875 39.59375 14.0625q77.328125 16.65625 110.796875 33.71875q33.46872 17.0625 48.703094 42.328125q15.234375 25.25 15.234375 56.5q0 36.71875 -20.3125 67.71875q-20.31247 30.984375 -56.78122 47.0q-36.453125 16.015625 -91.921875 16.015625q-97.390625 0 -134.89062 -37.5q-37.5 -37.5 -42.453125 -95.3125zm385.1525 0l112.25 -7.03125q3.640625 27.34375 14.84375 41.65625q18.21875 23.1875 52.078125 23.1875q25.265625 0 38.9375 -11.84375q13.671875 -11.859375 13.671875 -27.484375q0 -14.84375 -13.03125 -26.5625q-13.015625 -11.71875 -60.40625 -22.140625q-77.609375 -17.4375 -110.6875 -46.34375q-33.328125 -28.90625 -33.328125 -73.703125q0 -29.421875 17.046875 -55.59375q17.0625 -26.171875 51.3125 -41.140625q34.25 -14.984375 93.875 -14.984375q73.171875 0 111.578125 27.21875q38.421875 27.21875 45.71875 86.59375l-111.203125 6.5q-4.421875 -25.78125 -18.625 -37.5q-14.1875 -11.71875 -39.1875 -11.71875q-20.5625 0 -30.984375 8.734375q-10.421875 8.71875 -10.421875 21.21875q0 9.109375 8.59375 16.40625q8.34375 7.546875 39.59375 14.0625q77.328125 16.65625 110.796875 33.71875q33.46875 17.0625 48.703125 42.328125q15.234375 25.25 15.234375 56.5q0 36.71875 -20.3125 67.71875q-20.3125 30.984375 -56.78125 47.0q-36.453125 16.015625 -91.921875 16.015625q-97.390625 0 -134.89062 -37.5q-37.5 -37.5 -42.453125 -95.3125zm406.24622 -255.46875l117.96875 0l0 144.26562l123.703125 -144.26562l156.76562 0l-139.0625 144.0l145.3125 237.76562l-145.3125 0l-80.46875 -157.03125l-60.9375 63.796875l0 93.234375l-117.96875 0l0 -381.76562zm445.31348 0l175.26562 0q51.8125 0 83.703125 14.0625q31.90625 14.0625 52.734375 40.375q20.84375 26.296875 30.21875 61.1875q9.375 34.890625 9.375 73.953125q0 61.203125 -13.9375 94.921875q-13.921875 33.71875 -38.671875 56.515625q-24.734375 22.78125 -53.125 30.328125q-38.796875 10.421875 -70.296875 10.421875l-175.26562 0l0 -381.76562zm117.96875 86.453125l0 208.59375l28.90625 0q36.984375 0 52.609375 -8.203125q15.625 -8.203125 24.46875 -28.640625q8.859375 -20.453125 8.859375 -66.28125q0 -60.671875 -19.796875 -83.0625q-19.78125 -22.40625 -65.625 -22.40625l-29.421875 0z" fill-rule="nonzero"/></g></svg>