<svg version="1.1" viewBox="0.0 0.0 6063.0 1253.0" fill="none" stroke="none" stroke-linecap="square" stroke-miterlimit="10" xmlns:xlink="http://www.w3.org/1999/xlink" xmlns="http://www.w3.org/2000/svg"><clipPath id="p.0"><path d="m0 0l6063.0 0l0 1253.0l-6063.0 0l0 -1253.0z" clip-rule="nonzero"/></clipPath><g clip-path="url(#p.0)"><path fill="#000000" fill-opacity="0.0" d="m0 0l6063.0 0l0 1253.0l-6063.0 0z" fill-rule="evenodd"/><path fill="#000000" fill-opacity="0.0" d="m74.69671 55.90557l5913.6064 0l0 1141.1969l-5913.6064 0z" fill-rule="evenodd"/><path fill="#11a7f2" d="m373.1386 734.124l183.51562 -11.5q5.953125 44.703125 24.265625 68.125q29.796875 37.890625 85.15625 37.890625q41.296875 0 63.640625 -19.375q22.359375 -19.375 22.359375 -44.921875q0 -24.265625 -21.28125 -43.421875q-21.296875 -19.15625 -98.78125 -36.1875q-126.890625 -28.53125 -180.95312 -75.796875q-54.5 -47.265625 -54.5 -120.5q0 -48.109375 27.875 -90.890625q27.890625 -42.796875 83.875 -67.28125q56.0 -24.484375 153.5 -24.484375q119.65625 0 182.45312 44.5q62.796875 44.484375 74.71875 141.5625l-181.79688 10.65625q-7.25 -42.15625 -30.453125 -61.3125q-23.203125 -19.171875 -64.078125 -19.171875q-33.640625 0 -50.671875 14.265625q-17.03125 14.265625 -17.03125 34.703125q0 14.90625 14.0625 26.828125q13.625 12.34375 64.71875 22.984375q126.453125 27.25 181.15625 55.140625q54.71875 27.890625 79.625 69.203125q24.90625 41.296875 24.90625 92.390625q0 60.03125 -33.21875 110.703125q-33.203125 50.65625 -92.8125 76.84375q-59.609375 26.1875 -150.29688 26.1875q-159.23438 0 -220.54688 -61.3125q-61.3125 -61.3125 -69.40625 -155.82812zm860.93353 -417.70312l0 172.01562l95.375 0l0 126.46875l-95.375 0l0 160.51562q0 28.953125 5.53125 38.3125q8.515625 14.484375 29.796875 14.484375q19.171875 0 53.65625 -11.078125l12.765625 119.65625q-64.28125 14.046875 -120.0625 14.046875q-64.71875 0 -95.375 -16.609375q-30.65625 -16.609375 -45.34375 -50.453125q-14.6875 -33.84375 -14.6875 -109.640625l0 -159.23438l-63.87494 0l0 -126.46875l63.87494 0l0 -83.015625l173.71875 -89.0zm679.97266 441.10938l-347.4375 0q4.671875 41.734375 22.5625 62.171875q25.125 29.375 65.5625 29.375q25.546875 0 48.546875 -12.765625q14.046875 -8.09375 30.234375 -28.53125l170.73438 15.75q-39.171875 68.125 -94.53125 97.71875q-55.34375 29.59375 -158.8125 29.59375q-89.84375 0 -141.35938 -25.328125q-51.515625 -25.34375 -85.375 -80.484375q-33.84375 -55.140625 -33.84375 -129.64062q0 -106.03125 67.90625 -171.59375q67.921875 -65.578125 187.5625 -65.578125q97.078125 0 153.28125 29.390625q56.203125 29.375 85.578125 85.15625q29.390625 55.765625 29.390625 145.1875l0 19.578125zm-176.28125 -83.015625q-5.109375 -50.25 -27.046875 -71.953125q-21.921875 -21.71875 -57.6875 -21.71875q-41.296875 0 -65.984375 32.78125q-15.765625 20.4375 -20.015625 60.890625l170.73438 0zm757.89856 83.015625l-347.4375 0q4.671875 41.734375 22.5625 62.171875q25.125 29.375 65.5625 29.375q25.546875 0 48.546875 -12.765625q14.046875 -8.09375 30.234375 -28.53125l170.73438 15.75q-39.171875 68.125 -94.53125 97.71875q-55.34375 29.59375 -158.8125 29.59375q-89.84375 0 -141.35938 -25.328125q-51.515747 -25.34375 -85.37512 -80.484375q-33.84375 -55.140625 -33.84375 -129.64062q0 -106.03125 67.90625 -171.59375q67.922 -65.578125 187.56262 -65.578125q97.078125 0 153.28125 29.390625q56.203125 29.375 85.578125 85.15625q29.390625 55.765625 29.390625 145.1875l0 19.578125zm-176.28125 -83.015625q-5.109375 -50.25 -27.046875 -71.953125q-21.921875 -21.71875 -57.6875 -21.71875q-41.296875 0 -65.984375 32.78125q-15.765625 20.4375 -20.015625 60.890625l170.73438 0zm257.1797 -186.07812l161.79688 0l0 66.0q34.90625 -41.296875 70.453125 -58.75q35.5625 -17.46875 85.796875 -17.46875q54.078125 0 85.578125 19.171875q31.515625 19.15625 51.53125 57.046875q40.875 -44.28125 74.5 -60.25q33.640625 -15.96875 83.03125 -15.96875q72.8125 0 113.6875 43.21875q40.875 43.21875 40.875 135.1875l0 284.0l-173.71875 0l0 -257.59375q0 -30.65625 -11.921875 -45.5625q-17.453125 -23.421875 -43.421875 -23.421875q-30.65625 0 -49.390625 22.140625q-18.734375 22.140625 -18.734375 71.109375l0 233.32812l-173.71875 0l0 -249.07812q0 -29.8125 -3.40625 -40.453125q-5.546875 -17.03125 -19.171875 -27.453125q-13.625 -10.4375 -31.921875 -10.4375q-29.8125 0 -48.96875 22.5625q-19.15625 22.5625 -19.15625 74.078125l0 230.78125l-173.71875 0l0 -452.1875zm1139.3867 245.6875l183.51562 -11.5q5.953125 44.703125 24.265625 68.125q29.796875 37.890625 85.15625 37.890625q41.296875 0 63.640625 -19.375q22.359375 -19.375 22.359375 -44.921875q0 -24.265625 -21.28125 -43.421875q-21.296875 -19.15625 -98.78125 -36.1875q-126.890625 -28.53125 -180.95312 -75.796875q-54.5 -47.265625 -54.5 -120.5q0 -48.109375 27.875 -90.890625q27.890625 -42.796875 83.875 -67.28125q56.0 -24.484375 153.5 -24.484375q119.65625 0 182.45312 44.5q62.796875 44.484375 74.71875 141.5625l-181.79688 10.65625q-7.25 -42.15625 -30.453125 -61.3125q-23.203125 -19.171875 -64.078125 -19.171875q-33.640625 0 -50.671875 14.265625q-17.03125 14.265625 -17.03125 34.703125q0 14.90625 14.0625 26.828125q13.625 12.34375 64.71875 22.984375q126.453125 27.25 181.15625 55.140625q54.71875 27.890625 79.625 69.203125q24.90625 41.296875 24.90625 92.390625q0 60.03125 -33.21875 110.703125q-33.203125 50.65625 -92.8125 76.84375q-59.609375 26.1875 -150.29688 26.1875q-159.23438 0 -220.54688 -61.3125q-61.3125 -61.3125 -69.40625 -155.82812zm664.21484 -417.70312l192.875 0l0 235.89062l202.25 -235.89062l256.32812 0l-227.375 235.46875l237.59375 388.73438l-237.59375 0l-131.5625 -256.75l-99.640625 104.3125l0 152.4375l-192.875 0l0 -624.2031zm728.08594 0l286.54688 0q84.734375 0 136.89062 23.0q52.15625 22.984375 86.21875 66.0q34.0625 43.0 49.390625 100.0625q15.328125 57.046875 15.328125 120.90625q0 100.0625 -22.78125 155.20312q-22.765625 55.140625 -63.21875 92.40625q-40.453125 37.25 -86.859375 49.59375q-63.4375 17.03125 -114.96875 17.03125l-286.54688 0l0 -624.2031zm192.875 141.35938l0 341.0625l47.265625 0q60.46875 0 86.015625 -13.40625q25.546875 -13.421875 40.015625 -46.84375q14.484375 -33.421875 14.484375 -108.359375q0 -99.21875 -32.359375 -135.82812q-32.359375 -36.625 -107.296875 -36.625l-48.125 0z" fill-rule="nonzero"/></g></svg>